<?xml version="1.0" standalone="no"?>
<!DOCTYPE svg PUBLIC "-//W3C//DTD SVG 20010904//EN"
 "http://www.w3.org/TR/2001/REC-SVG-20010904/DTD/svg10.dtd">
<svg version="1.0" xmlns="http://www.w3.org/2000/svg"
 width="456.000000pt" height="456.000000pt" viewBox="0 0 456.000000 456.000000"
 preserveAspectRatio="xMidYMid meet">
<metadata>
Created by potrace 1.14, written by Peter Selinger 2001-2017
</metadata>
<g transform="translate(0.000000,456.000000) scale(0.100000,-0.100000)"
fill="#000000" stroke="none">
<path d="M0 2280 l0 -2280 2280 0 2280 0 0 2280 0 2280 -2280 0 -2280 0 0
-2280z m2610 1505 c52 -9 151 -35 219 -57 132 -44 378 -160 387 -182 4 -10
-222 -539 -240 -563 -1 -1 -40 23 -86 54 -130 85 -252 141 -350 159 -160 30
-265 5 -367 -89 -111 -102 -111 -212 0 -314 25 -23 62 -50 84 -61 53 -27 260
-93 428 -137 228 -59 324 -106 430 -210 268 -263 320 -695 130 -1081 -122
-249 -280 -397 -507 -472 -179 -59 -284 -76 -483 -76 -200 0 -306 17 -480 76
-175 59 -410 192 -527 300 l-48 43 176 280 c97 154 180 284 184 289 6 6 51
-31 112 -90 222 -214 338 -273 561 -290 77 -5 104 -3 148 11 167 55 245 156
238 308 -5 93 -32 137 -127 208 -95 71 -191 114 -328 150 -190 48 -271 77
-399 140 -152 76 -228 136 -293 234 -97 144 -150 385 -123 557 38 236 126 415
280 568 138 138 320 222 556 260 82 12 309 4 425 -15z"/>
</g>
</svg>
